<svg aria-hidden="true" style="position: absolute; width: 0; height: 0; overflow: hidden;" version="1.1" xmlns="http://www.w3.org/2000/svg" xmlns:xlink="http://www.w3.org/1999/xlink">
<defs>
<symbol id="icon-logo" viewBox="0 0 28 32">
 <path d="M21.073 16.002l-3.834-8.782-0.836-0.58-0.98-0.312-1.326-0.357-1.557 0.669-1.038 0.58 3.92 8.782h5.65z"></path>
 <path d="M7.314 13.065l3.834 8.803 0.836 0.581 0.98 0.313 1.326 0.357 1.557-0.67 1.038-0.581-3.921-8.803h-5.65z"></path>
 <path d="M11.298 7.335l-5.952 8.604 5.952 0.064 4.303-8.667c0.302-0.887 1.247-0.369 1.682 0-1.858-3.405-4.764-1.419-5.985 0z"></path>
 <path d="M17.066 21.756l5.952-8.604-5.952-0.064-4.303 8.667c-0.302 0.887-1.247 0.369-1.682 0 1.858 3.405 4.764 1.419 5.985 0z"></path>
</symbol>
<symbol id="icon-facebook" viewBox="0 0 32 32">
 <path d="M19.52 4.64c0.24 0 0.48 0 0.96 0v3.6c-0.24 0-0.72 0-1.2 0s-0.96 0-1.2 0.24c-0.24 0.24-0.24 0.48-0.24 1.040 0 0.48 0 0.8 0 1.28h2.64v3.040h-2.64v13.2h-4.080v-13.28h-2.16v-3.040h2.16v-1.040c0-1.76 0.24-3.040 0.72-3.6 0.72-1.040 2.16-1.52 4.32-1.52 0.24 0.080 0.48 0.080 0.72 0.080z"></path>
</symbol>
<symbol id="icon-instagram" viewBox="0 0 32 32">
 <path d="M28.718 10.756c-0.016-1.074-0.215-2.14-0.596-3.145-0.667-1.716-2.024-3.073-3.743-3.737-0.994-0.373-2.044-0.573-3.108-0.596-1.368-0.061-1.801-0.078-5.273-0.078s-3.916 0-5.274 0.078c-1.062 0.023-2.113 0.223-3.106 0.596-1.719 0.664-3.078 2.021-3.743 3.737-0.374 0.992-0.576 2.041-0.596 3.101-0.061 1.367-0.080 1.8-0.080 5.265s0 3.909 0.080 5.265c0.021 1.062 0.222 2.109 0.596 3.104 0.667 1.714 2.024 3.071 3.744 3.735 0.989 0.386 2.040 0.605 3.106 0.639 1.369 0.061 1.803 0.080 5.274 0.080s3.916 0 5.274-0.080c1.062-0.021 2.112-0.221 3.108-0.595 1.719-0.666 3.076-2.022 3.743-3.737 0.374-0.994 0.574-2.041 0.596-3.104 0.061-1.365 0.080-1.798 0.080-5.265-0.003-3.466-0.003-3.906-0.082-5.264zM15.99 22.531c-3.631 0-6.572-2.936-6.572-6.561s2.941-6.561 6.572-6.561c3.628 0 6.572 2.936 6.572 6.561s-2.944 6.561-6.572 6.561zM22.824 10.696c-0.849 0-1.532-0.684-1.532-1.53s0.684-1.53 1.532-1.53c0.846 0 1.531 0.684 1.531 1.53s-0.685 1.53-1.531 1.53z"></path>
 <path d="M15.992 19.976c2.211 0 4.004-1.793 4.004-4.004s-1.793-4.004-4.004-4.004c-2.211 0-4.004 1.793-4.004 4.004s1.793 4.004 4.004 4.004z"></path>
</symbol>
<symbol id="icon-youtube" viewBox="0 0 32 32">
 <path d="M24.24 6c-1.36-0.080-4.16-0.16-8.4-0.16h-0.56c-4.080 0-6.8 0.080-8.16 0.24-1.84 0.16-3.12 0.64-3.84 1.28-0.64 0.56-1.12 1.6-1.28 2.96-0.080 0.88-0.16 2.72-0.16 5.52v0.4c0 2.64 0.080 4.48 0.24 5.36 0.24 1.28 0.64 2.24 1.44 2.8 0.8 0.64 2.16 1.040 4.080 1.2 1.36 0.080 4.16 0.16 8.4 0.16h0.56c4.080 0 6.8-0.080 8.16-0.24 1.84-0.16 3.12-0.64 3.84-1.28 0.64-0.56 1.12-1.6 1.28-2.96 0.080-0.88 0.16-2.72 0.16-5.52v-0.4c0-2.64-0.080-4.48-0.24-5.36-0.24-1.28-0.64-2.24-1.44-2.8-0.8-0.64-2.16-1.040-4.080-1.2zM21.12 15.84l-8.8 5.28v-10.56l8.8 5.28z"></path>
</symbol>
<symbol id="icon-slider-left" viewBox="0 0 32 32">
 <path stroke-width="0.7619" stroke-miterlimit="4" stroke-linecap="butt" stroke-linejoin="miter" d="M6.857 0.381h18.286c3.577 0 6.476 2.9 6.476 6.476v18.286c0 3.577-2.899 6.476-6.476 6.476h-18.286c-3.577 0-6.476-2.899-6.476-6.476v-18.286c0-3.577 2.9-6.476 6.476-6.476z"></path>
 <path stroke-width="0.7619" stroke-miterlimit="4" stroke-linecap="round" stroke-linejoin="round" d="M13.714 20.571l4.571-4.571-4.571-4.571"></path>
</symbol>
<symbol id="icon-slider-right" viewBox="0 0 32 32">
 <path stroke-width="0.7619" stroke-miterlimit="4" stroke-linecap="butt" stroke-linejoin="miter" d="M6.857 0.381h18.286c3.577 0 6.476 2.9 6.476 6.476v18.286c0 3.577-2.899 6.476-6.476 6.476h-18.286c-3.577 0-6.476-2.899-6.476-6.476v-18.286c0-3.577 2.9-6.476 6.476-6.476z"></path>
 <path stroke-width="0.7619" stroke-miterlimit="4" stroke-linecap="round" stroke-linejoin="round" d="M18.286 20.571l-4.571-4.571 4.571-4.571"></path>
</symbol>
<symbol id="icon-menu" viewBox="0 0 32 32">
 <path d="M2.667 7.993c0-0.733 0.595-1.327 1.327-1.327h10.68c0.352 0 0.689 0.14 0.938 0.389s0.389 0.586 0.389 0.938c0 0.352-0.14 0.689-0.389 0.938s-0.586 0.389-0.938 0.389h-10.68c-0.352 0-0.689-0.14-0.938-0.389s-0.389-0.586-0.389-0.938zM2.667 16c0-0.733 0.595-1.327 1.327-1.327h24.013c0.352 0 0.689 0.14 0.938 0.389s0.389 0.586 0.389 0.938c0 0.352-0.14 0.689-0.389 0.938s-0.586 0.389-0.938 0.389h-24.013c-0.352 0-0.689-0.14-0.938-0.389s-0.389-0.586-0.389-0.938zM3.993 22.68c-0.352 0-0.689 0.14-0.938 0.389s-0.389 0.586-0.389 0.938c0 0.352 0.14 0.689 0.389 0.938s0.586 0.389 0.938 0.389h16.013c0.352 0 0.689-0.14 0.938-0.389s0.389-0.586 0.389-0.938c0-0.352-0.14-0.689-0.389-0.938s-0.586-0.389-0.938-0.389h-16.013z"></path>
</symbol>
<symbol id="icon-close" viewBox="0 0 32 32">
 <path fill="none" stroke-width="1.7333" stroke-miterlimit="10" stroke-linecap="round" stroke-linejoin="round" d="M24 8l-16 16"></path>
 <path fill="none" stroke-width="1.7333" stroke-miterlimit="10" stroke-linecap="round" stroke-linejoin="round" d="M8 8l16 16"></path>
</symbol>
<symbol id="icon-heart" viewBox="0 0 32 32">
<path d="M8.507 2.725c-3.847 0.401-6.919 3.263-7.641 7.115-0.124 0.665-0.124 2.321 0 2.987 0.261 1.396 0.783 2.579 1.655 3.76 0.536 0.725 12.648 12.84 13.004 13.007 0.133 0.063 0.348 0.113 0.476 0.113s0.343-0.051 0.476-0.113c0.188-0.088 1.672-1.543 6.436-6.307 3.885-3.887 6.312-6.353 6.513-6.621 1.227-1.635 1.827-3.385 1.827-5.332 0-0.001 0-0.001 0-0.002 0-4.151-2.922-7.62-6.822-8.462l-0.057-0.010c-0.529-0.11-1.137-0.173-1.76-0.173-0.244 0-0.485 0.010-0.724 0.029l0.032-0.002c-0.864 0.075-1.367 0.176-2.081 0.417-1.244 0.421-2.285 1.061-3.32 2.041l-0.52 0.493-0.52-0.493c-0.473-0.459-0.997-0.87-1.562-1.221l-0.039-0.023c-1.275-0.784-2.82-1.248-4.473-1.248-0.317 0-0.629 0.017-0.937 0.050l0.038-0.003zM10.38 5.416c0.26 0.045 0.683 0.153 0.939 0.239 1.052 0.352 1.519 0.677 2.869 2 1.16 1.135 1.396 1.305 1.812 1.305s0.652-0.171 1.812-1.305c1.351-1.323 1.817-1.648 2.869-2 0.572-0.201 1.232-0.318 1.919-0.318 1.654 0 3.151 0.675 4.23 1.764l0 0c0.78 0.777 1.299 1.689 1.604 2.819 0.107 0.395 0.123 0.579 0.123 1.413s-0.016 1.019-0.123 1.413c-0.273 1.008-0.699 1.813-1.347 2.548-0.225 0.256-2.813 2.865-5.749 5.799l-5.34 5.333-5.644-5.653c-6.087-6.096-5.989-5.989-6.431-6.996-0.111-0.253-0.225-0.571-0.322-0.898l-0.016-0.062c-0.133-0.481-0.145-0.601-0.145-1.484s0.012-1.003 0.145-1.484c0.311-1.113 0.804-1.972 1.583-2.748 1.38-1.376 3.341-2.011 5.211-1.685z"></path>
</symbol>
<symbol id="icon-logo-cropped1" viewBox="0 0 31 32">
 <path fill="#000" style="fill: var(--color1, #000)" d="M27.683 18.565l-6.744-15.448-1.47-1.019-1.724-0.549-2.332-0.627-2.738 1.176-1.825 1.019 6.896 15.448h9.938z"></path>
 <path fill="#fff" style="fill: var(--color2, #fff)" d="M10.489 3.32l-10.47 15.133 10.47 0.112 7.568-15.245c0.531-1.56 2.194-0.65 2.959 0-3.269-5.989-8.38-2.495-10.527 0z"></path>
 <path fill="#000" style="fill: var(--color1, #000)" d="M3.482 13.4l6.744 15.484 1.47 1.022 1.724 0.55 2.332 0.629 2.738-1.179 1.825-1.022-6.896-15.484h-9.938z"></path>
 <path fill="#fff" style="fill: var(--color2, #fff)" d="M20.635 28.687l10.47-15.133-10.47-0.112-7.568 15.245c-0.531 1.56-2.194 0.65-2.959 0 3.269 5.989 8.38 2.495 10.527 0z"></path>
</symbol>
</defs>
</svg>
